<?xml version="1.0" encoding="UTF-8" standalone="no"?>
<!DOCTYPE svg PUBLIC "-//W3C//DTD SVG 1.1//EN"
 "http://www.w3.org/Graphics/SVG/1.1/DTD/svg11.dtd">
<!-- Generated by graphviz version 2.40.1 (20161225.0304)
 -->
<!-- Title: M Pages: 1 -->
<svg width="191pt" height="482pt"
 viewBox="0.00 0.00 190.97 482.00" xmlns="http://www.w3.org/2000/svg" xmlns:xlink="http://www.w3.org/1999/xlink">
<g id="graph0" class="graph" transform="scale(1 1) rotate(0) translate(4 478)">
<title>M</title>
<polygon fill="#ffffff" stroke="transparent" points="-4,4 -4,-478 186.9679,-478 186.9679,4 -4,4"/>
<!-- generate -->
<g id="node1" class="node">
<title>generate</title>
<ellipse fill="#d3d3d3" stroke="#000000" cx="92.9679" cy="-456" rx="60.3858" ry="18"/>
<text text-anchor="middle" x="92.9679" y="-451.8" font-family="Times,serif" font-size="14.00" fill="#000000">generate input</text>
</g>
<!-- filter -->
<g id="node2" class="node">
<title>filter</title>
<ellipse fill="#d3d3d3" stroke="#000000" cx="92.9679" cy="-383" rx="27" ry="18"/>
<text text-anchor="middle" x="92.9679" y="-378.8" font-family="Times,serif" font-size="14.00" fill="#000000">filter</text>
</g>
<!-- generate&#45;&gt;filter -->
<g id="edge1" class="edge">
<title>generate&#45;&gt;filter</title>
<path fill="none" stroke="#000000" d="M87.0522,-437.9551C86.2417,-429.7614 86.0218,-419.8841 86.3923,-410.7765"/>
<polygon fill="#000000" stroke="#000000" points="89.8987,-410.8035 87.0984,-400.5855 82.9154,-410.3196 89.8987,-410.8035"/>
</g>
<!-- filter&#45;&gt;generate -->
<g id="edge7" class="edge">
<title>filter&#45;&gt;generate</title>
<path fill="none" stroke="#000000" d="M98.8374,-400.5855C99.67,-408.715 99.9121,-418.5744 99.5638,-427.71"/>
<polygon fill="#000000" stroke="#000000" points="96.0538,-427.7451 98.8836,-437.9551 103.0385,-428.2089 96.0538,-427.7451"/>
</g>
<!-- input -->
<g id="node5" class="node">
<title>input</title>
<ellipse fill="none" stroke="#000000" cx="83.9679" cy="-310" rx="28.0736" ry="18"/>
<text text-anchor="middle" x="83.9679" y="-305.8" font-family="Times,serif" font-size="14.00" fill="#000000">input</text>
</g>
<!-- filter&#45;&gt;input -->
<g id="edge2" class="edge">
<title>filter&#45;&gt;input</title>
<path fill="none" stroke="#000000" d="M90.7432,-364.9551C89.748,-356.8828 88.5513,-347.1764 87.4424,-338.1817"/>
<polygon fill="#000000" stroke="#000000" points="90.8956,-337.5869 86.1982,-328.0904 83.9482,-338.4435 90.8956,-337.5869"/>
</g>
<!-- computation -->
<g id="node3" class="node">
<title>computation</title>
<ellipse fill="#d3d3d3" stroke="#000000" cx="57.9679" cy="-237" rx="54.1317" ry="18"/>
<text text-anchor="middle" x="57.9679" y="-232.8" font-family="Times,serif" font-size="14.00" fill="#000000">computation</text>
</g>
<!-- output -->
<g id="node6" class="node">
<title>output</title>
<ellipse fill="none" stroke="#000000" cx="57.9679" cy="-164" rx="32.9168" ry="18"/>
<text text-anchor="middle" x="57.9679" y="-159.8" font-family="Times,serif" font-size="14.00" fill="#000000">output</text>
</g>
<!-- computation&#45;&gt;output -->
<g id="edge4" class="edge">
<title>computation&#45;&gt;output</title>
<path fill="none" stroke="#000000" d="M57.9679,-218.9551C57.9679,-210.8828 57.9679,-201.1764 57.9679,-192.1817"/>
<polygon fill="#000000" stroke="#000000" points="61.468,-192.0903 57.9679,-182.0904 54.468,-192.0904 61.468,-192.0903"/>
</g>
<!-- property -->
<g id="node4" class="node">
<title>property</title>
<ellipse fill="#d3d3d3" stroke="#000000" cx="59.9679" cy="-91" rx="59.9358" ry="18"/>
<text text-anchor="middle" x="59.9679" y="-86.8" font-family="Times,serif" font-size="14.00" fill="#000000">inspect output</text>
</g>
<!-- result -->
<g id="node7" class="node">
<title>result</title>
<ellipse fill="none" stroke="#000000" cx="103.9679" cy="-18" rx="29.5104" ry="18"/>
<text text-anchor="middle" x="103.9679" y="-13.8" font-family="Times,serif" font-size="14.00" fill="#000000">result</text>
</g>
<!-- property&#45;&gt;result -->
<g id="edge6" class="edge">
<title>property&#45;&gt;result</title>
<path fill="none" stroke="#000000" d="M70.8443,-72.9551C76.0899,-64.2522 82.4804,-53.6497 88.2439,-44.0876"/>
<polygon fill="#000000" stroke="#000000" points="91.355,-45.706 93.5196,-35.3347 85.3598,-42.0925 91.355,-45.706"/>
</g>
<!-- input&#45;&gt;computation -->
<g id="edge3" class="edge">
<title>input&#45;&gt;computation</title>
<path fill="none" stroke="#000000" d="M77.674,-292.3287C74.7162,-284.024 71.1205,-273.9283 67.8144,-264.6458"/>
<polygon fill="#000000" stroke="#000000" points="71.0368,-263.2617 64.3844,-255.0157 64.4426,-265.6103 71.0368,-263.2617"/>
</g>
<!-- output&#45;&gt;property -->
<g id="edge5" class="edge">
<title>output&#45;&gt;property</title>
<path fill="none" stroke="#000000" d="M58.4623,-145.9551C58.6834,-137.8828 58.9494,-128.1764 59.1958,-119.1817"/>
<polygon fill="#000000" stroke="#000000" points="62.697,-119.1825 59.4723,-109.0904 55.6996,-118.9907 62.697,-119.1825"/>
</g>
<!-- result&#45;&gt;generate -->
<g id="edge8" class="edge">
<title>result&#45;&gt;generate</title>
<path fill="none" stroke="#000000" d="M120.102,-33.491C132.6596,-47.2726 147.9679,-68.6554 147.9679,-91 147.9679,-383 147.9679,-383 147.9679,-383 147.9679,-401.9686 135.9756,-419.1395 123.1906,-432.0556"/>
<polygon fill="#000000" stroke="#000000" points="120.5371,-429.7467 115.656,-439.1502 125.3359,-434.843 120.5371,-429.7467"/>
<text text-anchor="middle" x="165.4679" y="-239.8" font-family="Times,serif" font-size="14.00" fill="#000000">repeat</text>
<text text-anchor="middle" x="165.4679" y="-225.8" font-family="Times,serif" font-size="14.00" fill="#000000">1000x</text>
</g>
</g>
</svg>
