<?xml version="1.0" encoding="UTF-8" standalone="no"?>
<!DOCTYPE svg PUBLIC "-//W3C//DTD SVG 1.1//EN"
 "http://www.w3.org/Graphics/SVG/1.1/DTD/svg11.dtd">
<!-- Generated by graphviz version 2.40.1 (20161225.0304)
 -->
<!-- Title: M Pages: 1 -->
<svg width="294pt" height="347pt"
 viewBox="0.00 0.00 294.25 346.91" xmlns="http://www.w3.org/2000/svg" xmlns:xlink="http://www.w3.org/1999/xlink">
<g id="graph0" class="graph" transform="scale(1 1) rotate(0) translate(4 342.9117)">
<title>M</title>
<polygon fill="#ffffff" stroke="transparent" points="-4,4 -4,-342.9117 290.2529,-342.9117 290.2529,4 -4,4"/>
<!-- seed -->
<g id="node1" class="node">
<title>seed</title>
<ellipse fill="none" stroke="#000000" cx="134.3315" cy="-320.9117" rx="27" ry="18"/>
<text text-anchor="middle" x="134.3315" y="-316.7117" font-family="Times,serif" font-size="14.00" fill="#000000">seed</text>
</g>
<!-- transformations -->
<g id="node2" class="node">
<title>transformations</title>
<ellipse fill="none" stroke="#000000" cx="87.3315" cy="-248.9117" rx="65.7235" ry="18"/>
<text text-anchor="middle" x="87.3315" y="-244.7117" font-family="Times,serif" font-size="14.00" fill="#000000">transformations</text>
</g>
<!-- seed&#45;&gt;transformations -->
<g id="edge1" class="edge">
<title>seed&#45;&gt;transformations</title>
<path fill="none" stroke="#000000" d="M123.4306,-304.2125C117.8249,-295.6249 110.8611,-284.9571 104.5498,-275.2887"/>
<polygon fill="#000000" stroke="#000000" points="107.3918,-273.2394 98.9947,-266.7788 101.5302,-277.0658 107.3918,-273.2394"/>
</g>
<!-- computation -->
<g id="node3" class="node">
<title>computation</title>
<ellipse fill="none" stroke="#000000" cx="134.3315" cy="-176.9117" rx="54.1317" ry="18"/>
<text text-anchor="middle" x="134.3315" y="-172.7117" font-family="Times,serif" font-size="14.00" fill="#000000">computation</text>
</g>
<!-- seed&#45;&gt;computation -->
<g id="edge3" class="edge">
<title>seed&#45;&gt;computation</title>
<path fill="none" stroke="#000000" d="M145.6398,-304.2375C151.9095,-293.9661 159.0792,-280.2493 162.3315,-266.9117 166.1219,-251.3672 166.1219,-246.4562 162.3315,-230.9117 160.0166,-221.4182 155.717,-211.7327 151.1699,-203.2342"/>
<polygon fill="#000000" stroke="#000000" points="154.2109,-201.5014 146.2209,-194.5436 148.1281,-204.9654 154.2109,-201.5014"/>
</g>
<!-- transformations&#45;&gt;computation -->
<g id="edge2" class="edge">
<title>transformations&#45;&gt;computation</title>
<path fill="none" stroke="#000000" d="M98.9495,-231.1139C104.4291,-222.7196 111.0784,-212.5334 117.127,-203.2675"/>
<polygon fill="#000000" stroke="#000000" points="120.1488,-205.0412 122.6843,-194.7542 114.2872,-201.2148 120.1488,-205.0412"/>
</g>
<!-- output from\n seed -->
<g id="node4" class="node">
<title>output from\n seed</title>
<ellipse fill="none" stroke="#000000" cx="58.3315" cy="-97.4558" rx="58.1634" ry="25.4118"/>
<text text-anchor="middle" x="58.3315" y="-100.2558" font-family="Times,serif" font-size="14.00" fill="#000000">output from</text>
<text text-anchor="middle" x="58.3315" y="-86.2558" font-family="Times,serif" font-size="14.00" fill="#000000"> seed</text>
</g>
<!-- computation&#45;&gt;output from\n seed -->
<g id="edge4" class="edge">
<title>computation&#45;&gt;output from\n seed</title>
<path fill="none" stroke="#000000" d="M117.8406,-159.671C109.1284,-150.5626 98.167,-139.1028 88.0333,-128.5083"/>
<polygon fill="#000000" stroke="#000000" points="90.2862,-125.8001 80.8448,-120.9928 85.2277,-130.6386 90.2862,-125.8001"/>
</g>
<!-- output from\n transformations -->
<g id="node5" class="node">
<title>output from\n transformations</title>
<ellipse fill="none" stroke="#000000" cx="210.3315" cy="-97.4558" rx="75.843" ry="25.4118"/>
<text text-anchor="middle" x="210.3315" y="-100.2558" font-family="Times,serif" font-size="14.00" fill="#000000">output from</text>
<text text-anchor="middle" x="210.3315" y="-86.2558" font-family="Times,serif" font-size="14.00" fill="#000000"> transformations</text>
</g>
<!-- computation&#45;&gt;output from\n transformations -->
<g id="edge5" class="edge">
<title>computation&#45;&gt;output from\n transformations</title>
<path fill="none" stroke="#000000" d="M150.8223,-159.671C159.3238,-150.7829 169.9669,-139.6559 179.8927,-129.2787"/>
<polygon fill="#000000" stroke="#000000" points="182.5697,-131.5436 186.9526,-121.8978 177.5111,-126.7051 182.5697,-131.5436"/>
</g>
<!-- relation -->
<g id="node6" class="node">
<title>relation</title>
<ellipse fill="none" stroke="#000000" cx="134.3315" cy="-18" rx="37.2334" ry="18"/>
<text text-anchor="middle" x="134.3315" y="-13.8" font-family="Times,serif" font-size="14.00" fill="#000000">relation</text>
</g>
<!-- output from\n seed&#45;&gt;relation -->
<g id="edge6" class="edge">
<title>output from\n seed&#45;&gt;relation</title>
<path fill="none" stroke="#000000" d="M81.134,-73.6165C90.7504,-63.5628 101.9213,-51.8839 111.5369,-41.8311"/>
<polygon fill="#000000" stroke="#000000" points="114.1523,-44.1603 118.5352,-34.5146 109.0937,-39.3218 114.1523,-44.1603"/>
</g>
<!-- output from\n transformations&#45;&gt;relation -->
<g id="edge7" class="edge">
<title>output from\n transformations&#45;&gt;relation</title>
<path fill="none" stroke="#000000" d="M187.116,-73.1847C177.5151,-63.1473 166.4225,-51.5503 156.8914,-41.5857"/>
<polygon fill="#000000" stroke="#000000" points="159.3993,-39.1441 149.9578,-34.3369 154.3407,-43.9827 159.3993,-39.1441"/>
</g>
</g>
</svg>
