<?xml version="1.0" encoding="UTF-8" standalone="no"?>
<!DOCTYPE svg PUBLIC "-//W3C//DTD SVG 1.1//EN"
 "http://www.w3.org/Graphics/SVG/1.1/DTD/svg11.dtd">
<!-- Generated by graphviz version 2.40.1 (20161225.0304)
 -->
<!-- Title: M Pages: 1 -->
<svg width="210pt" height="521pt"
 viewBox="0.00 0.00 209.85 520.74" xmlns="http://www.w3.org/2000/svg" xmlns:xlink="http://www.w3.org/1999/xlink">
<g id="graph0" class="graph" transform="scale(1 1) rotate(0) translate(4 516.7351)">
<title>M</title>
<polygon fill="#ffffff" stroke="transparent" points="-4,4 -4,-516.7351 205.8513,-516.7351 205.8513,4 -4,4"/>
<!-- transformations -->
<g id="node1" class="node">
<title>transformations</title>
<ellipse fill="#d3d3d3" stroke="#000000" cx="67.1435" cy="-422.7351" rx="65.7235" ry="18"/>
<text text-anchor="middle" x="67.1435" y="-418.5351" font-family="Times,serif" font-size="14.00" fill="#000000">transformations</text>
</g>
<!-- trans_input -->
<g id="node3" class="node">
<title>trans_input</title>
<ellipse fill="none" stroke="#000000" cx="71.1435" cy="-343.2792" rx="59.2874" ry="25.4118"/>
<text text-anchor="middle" x="71.1435" y="-346.0792" font-family="Times,serif" font-size="14.00" fill="#000000">transformed</text>
<text text-anchor="middle" x="71.1435" y="-332.0792" font-family="Times,serif" font-size="14.00" fill="#000000">input</text>
</g>
<!-- transformations&#45;&gt;trans_input -->
<g id="edge2" class="edge">
<title>transformations&#45;&gt;trans_input</title>
<path fill="none" stroke="#000000" d="M68.0512,-404.7053C68.4356,-397.0704 68.8976,-387.8931 69.3459,-378.988"/>
<polygon fill="#000000" stroke="#000000" points="72.8531,-378.9313 69.8604,-368.7679 65.8619,-378.5793 72.8531,-378.9313"/>
</g>
<!-- computation -->
<g id="node2" class="node">
<title>computation</title>
<ellipse fill="#d3d3d3" stroke="#000000" cx="114.1435" cy="-263.8234" rx="54.1317" ry="18"/>
<text text-anchor="middle" x="114.1435" y="-259.6234" font-family="Times,serif" font-size="14.00" fill="#000000">computation</text>
</g>
<!-- trans_output -->
<g id="node4" class="node">
<title>trans_output</title>
<ellipse fill="none" stroke="#000000" cx="59.1435" cy="-184.3675" rx="59.2874" ry="25.4118"/>
<text text-anchor="middle" x="59.1435" y="-187.1675" font-family="Times,serif" font-size="14.00" fill="#000000">transformed</text>
<text text-anchor="middle" x="59.1435" y="-173.1675" font-family="Times,serif" font-size="14.00" fill="#000000">output</text>
</g>
<!-- computation&#45;&gt;trans_output -->
<g id="edge5" class="edge">
<title>computation&#45;&gt;trans_output</title>
<path fill="none" stroke="#000000" d="M101.9373,-246.1895C96.0627,-237.7029 88.8229,-227.2439 81.98,-217.3582"/>
<polygon fill="#000000" stroke="#000000" points="84.6823,-215.1126 76.1129,-208.8823 78.9267,-219.0967 84.6823,-215.1126"/>
</g>
<!-- output -->
<g id="node7" class="node">
<title>output</title>
<ellipse fill="none" stroke="#000000" cx="169.1435" cy="-184.3675" rx="32.9168" ry="18"/>
<text text-anchor="middle" x="169.1435" y="-180.1675" font-family="Times,serif" font-size="14.00" fill="#000000">output</text>
</g>
<!-- computation&#45;&gt;output -->
<g id="edge6" class="edge">
<title>computation&#45;&gt;output</title>
<path fill="none" stroke="#000000" d="M126.3498,-246.1895C133.786,-235.4469 143.4097,-221.544 151.647,-209.644"/>
<polygon fill="#000000" stroke="#000000" points="154.5351,-211.6211 157.3489,-201.4067 148.7795,-207.637 154.5351,-211.6211"/>
</g>
<!-- trans_input&#45;&gt;computation -->
<g id="edge3" class="edge">
<title>trans_input&#45;&gt;computation</title>
<path fill="none" stroke="#000000" d="M84.749,-318.1389C89.497,-309.3656 94.8414,-299.49 99.6583,-290.5894"/>
<polygon fill="#000000" stroke="#000000" points="102.7585,-292.2145 104.4399,-281.7539 96.6022,-288.8828 102.7585,-292.2145"/>
</g>
<!-- relation -->
<g id="node5" class="node">
<title>relation</title>
<ellipse fill="#d3d3d3" stroke="#000000" cx="114.1435" cy="-97.4558" rx="44.0799" ry="25.4118"/>
<text text-anchor="middle" x="114.1435" y="-100.2558" font-family="Times,serif" font-size="14.00" fill="#000000">evaluate</text>
<text text-anchor="middle" x="114.1435" y="-86.2558" font-family="Times,serif" font-size="14.00" fill="#000000">relation</text>
</g>
<!-- trans_output&#45;&gt;relation -->
<g id="edge7" class="edge">
<title>trans_output&#45;&gt;relation</title>
<path fill="none" stroke="#000000" d="M74.7572,-159.6946C80.5442,-150.5499 87.2008,-140.031 93.3751,-130.2744"/>
<polygon fill="#000000" stroke="#000000" points="96.481,-131.9116 98.8709,-121.5898 90.5659,-128.1683 96.481,-131.9116"/>
</g>
<!-- result -->
<g id="node8" class="node">
<title>result</title>
<ellipse fill="none" stroke="#000000" cx="114.1435" cy="-18" rx="29.5104" ry="18"/>
<text text-anchor="middle" x="114.1435" y="-13.8" font-family="Times,serif" font-size="14.00" fill="#000000">result</text>
</g>
<!-- relation&#45;&gt;result -->
<g id="edge9" class="edge">
<title>relation&#45;&gt;result</title>
<path fill="none" stroke="#000000" d="M114.1435,-71.8782C114.1435,-63.7122 114.1435,-54.6289 114.1435,-46.2824"/>
<polygon fill="#000000" stroke="#000000" points="117.6436,-46.2287 114.1435,-36.2288 110.6436,-46.2288 117.6436,-46.2287"/>
</g>
<!-- input -->
<g id="node6" class="node">
<title>input</title>
<ellipse fill="none" stroke="#000000" cx="114.1435" cy="-494.7351" rx="28.0736" ry="18"/>
<text text-anchor="middle" x="114.1435" y="-490.5351" font-family="Times,serif" font-size="14.00" fill="#000000">input</text>
</g>
<!-- input&#45;&gt;transformations -->
<g id="edge1" class="edge">
<title>input&#45;&gt;transformations</title>
<path fill="none" stroke="#000000" d="M103.2427,-478.0358C97.6369,-469.4483 90.6732,-458.7805 84.3619,-449.1121"/>
<polygon fill="#000000" stroke="#000000" points="87.2039,-447.0628 78.8068,-440.6022 81.3422,-450.8892 87.2039,-447.0628"/>
</g>
<!-- input&#45;&gt;computation -->
<g id="edge4" class="edge">
<title>input&#45;&gt;computation</title>
<path fill="none" stroke="#000000" d="M125.4518,-478.0609C131.7216,-467.7895 138.8912,-454.0727 142.1435,-440.7351 146.9611,-420.9785 146.229,-347.5429 139.1435,-317.8234 136.9502,-308.6236 133.1285,-299.0979 129.1236,-290.656"/>
<polygon fill="#000000" stroke="#000000" points="132.22,-289.0228 124.6011,-281.6605 125.9659,-292.167 132.22,-289.0228"/>
</g>
<!-- output&#45;&gt;relation -->
<g id="edge8" class="edge">
<title>output&#45;&gt;relation</title>
<path fill="none" stroke="#000000" d="M158.2773,-167.1966C151.5622,-156.5852 142.7274,-142.6245 134.7277,-129.9832"/>
<polygon fill="#000000" stroke="#000000" points="137.6642,-128.0782 129.3591,-121.4997 131.7491,-131.8215 137.6642,-128.0782"/>
</g>
</g>
</svg>
