<?xml version="1.0" encoding="UTF-8" standalone="no"?>
<!DOCTYPE svg PUBLIC "-//W3C//DTD SVG 1.1//EN"
 "http://www.w3.org/Graphics/SVG/1.1/DTD/svg11.dtd">
<!-- Generated by graphviz version 2.40.1 (20161225.0304)
 -->
<!-- Title: M Pages: 1 -->
<svg width="298pt" height="332pt"
 viewBox="0.00 0.00 298.13 332.00" xmlns="http://www.w3.org/2000/svg" xmlns:xlink="http://www.w3.org/1999/xlink">
<g id="graph0" class="graph" transform="scale(1 1) rotate(0) translate(4 328)">
<title>M</title>
<polygon fill="#ffffff" stroke="transparent" points="-4,4 -4,-328 294.133,-328 294.133,4 -4,4"/>
<!-- known_input -->
<g id="node1" class="node">
<title>known_input</title>
<ellipse fill="none" stroke="#000000" cx="69.7916" cy="-306" rx="54.6407" ry="18"/>
<text text-anchor="middle" x="69.7916" y="-301.8" font-family="Times,serif" font-size="14.00" fill="#000000">known input</text>
</g>
<!-- computation -->
<g id="node4" class="node">
<title>computation</title>
<ellipse fill="#d3d3d3" stroke="#000000" cx="69.7916" cy="-234" rx="54.1317" ry="18"/>
<text text-anchor="middle" x="69.7916" y="-229.8" font-family="Times,serif" font-size="14.00" fill="#000000">computation</text>
</g>
<!-- known_input&#45;&gt;computation -->
<g id="edge1" class="edge">
<title>known_input&#45;&gt;computation</title>
<path fill="none" stroke="#000000" d="M69.7916,-287.8314C69.7916,-280.131 69.7916,-270.9743 69.7916,-262.4166"/>
<polygon fill="#000000" stroke="#000000" points="73.2917,-262.4132 69.7916,-252.4133 66.2917,-262.4133 73.2917,-262.4132"/>
</g>
<!-- known_output -->
<g id="node2" class="node">
<title>known_output</title>
<ellipse fill="none" stroke="#000000" cx="223.7916" cy="-162" rx="66.1832" ry="18"/>
<text text-anchor="middle" x="223.7916" y="-157.8" font-family="Times,serif" font-size="14.00" fill="#000000">expected output</text>
</g>
<!-- compare -->
<g id="node5" class="node">
<title>compare</title>
<ellipse fill="#d3d3d3" stroke="#000000" cx="146.7916" cy="-90" rx="40.5989" ry="18"/>
<text text-anchor="middle" x="146.7916" y="-85.8" font-family="Times,serif" font-size="14.00" fill="#000000">compare</text>
</g>
<!-- known_output&#45;&gt;compare -->
<g id="edge3" class="edge">
<title>known_output&#45;&gt;compare</title>
<path fill="none" stroke="#000000" d="M205.152,-144.5708C195.1237,-135.1937 182.6197,-123.5016 171.761,-113.3481"/>
<polygon fill="#000000" stroke="#000000" points="173.8987,-110.5552 164.2039,-106.2817 169.1177,-115.6682 173.8987,-110.5552"/>
</g>
<!-- test_output -->
<g id="node3" class="node">
<title>test_output</title>
<ellipse fill="none" stroke="#000000" cx="69.7916" cy="-162" rx="69.5838" ry="18"/>
<text text-anchor="middle" x="69.7916" y="-157.8" font-family="Times,serif" font-size="14.00" fill="#000000">computed output</text>
</g>
<!-- test_output&#45;&gt;compare -->
<g id="edge4" class="edge">
<title>test_output&#45;&gt;compare</title>
<path fill="none" stroke="#000000" d="M88.4311,-144.5708C98.4595,-135.1937 110.9634,-123.5016 121.8221,-113.3481"/>
<polygon fill="#000000" stroke="#000000" points="124.4654,-115.6682 129.3792,-106.2817 119.6845,-110.5552 124.4654,-115.6682"/>
</g>
<!-- computation&#45;&gt;test_output -->
<g id="edge2" class="edge">
<title>computation&#45;&gt;test_output</title>
<path fill="none" stroke="#000000" d="M69.7916,-215.8314C69.7916,-208.131 69.7916,-198.9743 69.7916,-190.4166"/>
<polygon fill="#000000" stroke="#000000" points="73.2917,-190.4132 69.7916,-180.4133 66.2917,-190.4133 73.2917,-190.4132"/>
</g>
<!-- result -->
<g id="node6" class="node">
<title>result</title>
<ellipse fill="none" stroke="#000000" cx="146.7916" cy="-18" rx="29.5104" ry="18"/>
<text text-anchor="middle" x="146.7916" y="-13.8" font-family="Times,serif" font-size="14.00" fill="#000000">result</text>
</g>
<!-- compare&#45;&gt;result -->
<g id="edge5" class="edge">
<title>compare&#45;&gt;result</title>
<path fill="none" stroke="#000000" d="M146.7916,-71.8314C146.7916,-64.131 146.7916,-54.9743 146.7916,-46.4166"/>
<polygon fill="#000000" stroke="#000000" points="150.2917,-46.4132 146.7916,-36.4133 143.2917,-46.4133 150.2917,-46.4132"/>
</g>
</g>
</svg>
